<?xml version="1.0" standalone="no"?>
<!DOCTYPE svg PUBLIC "-//W3C//DTD SVG 20010904//EN"
 "http://www.w3.org/TR/2001/REC-SVG-20010904/DTD/svg10.dtd">
<svg version="1.0" xmlns="http://www.w3.org/2000/svg"
 width="500.000000pt" height="500.000000pt" viewBox="0 0 500.000000 500.000000"
 preserveAspectRatio="xMidYMid meet">
<metadata>
Created by potrace 1.14, written by Peter Selinger 2001-2017
</metadata>
<g transform="translate(0.000000,500.000000) scale(0.100000,-0.100000)"
fill="#000000" stroke="none">
<path d="M2389 4985 c-165 -40 -301 -190 -329 -361 -6 -36 -10 -586 -10 -1397
0 -899 -3 -1345 -10 -1358 -6 -10 -44 -41 -85 -69 -348 -235 -513 -670 -404
-1069 77 -283 296 -536 561 -648 153 -64 225 -78 398 -77 138 1 165 4 245 28
102 30 233 90 303 137 108 75 239 222 310 349 129 232 151 533 57 792 -70 194
-209 373 -379 488 -41 27 -78 55 -83 62 -4 7 -10 94 -13 193 l-5 180 -90 0
-90 0 -3 -342 -2 -343 67 -43 c241 -154 346 -440 263 -708 -97 -316 -427 -502
-744 -419 -91 24 -140 48 -211 100 -202 151 -292 389 -240 635 33 157 132 298
275 391 l70 45 0 1442 c0 1429 1 1442 21 1487 27 60 74 107 134 136 152 72
334 -28 363 -199 l8 -42 92 -3 92 -3 0 98 c0 129 -13 202 -49 279 -89 191
-302 290 -512 239z"/>
<path d="M2463 4455 c-17 -7 -36 -22 -42 -34 -8 -14 -11 -451 -11 -1468 0
-965 -4 -1460 -10 -1485 -10 -33 -20 -42 -91 -79 -182 -95 -284 -287 -252
-475 23 -134 116 -269 223 -324 185 -95 418 -59 547 84 208 231 143 570 -136
715 -43 22 -82 48 -85 57 -3 9 -6 667 -6 1463 0 977 -3 1458 -11 1484 -16 58
-72 86 -126 62z"/>
<path d="M2944 4277 c-3 -8 -4 -49 -2 -93 l3 -79 180 0 180 0 0 90 0 90 -178
3 c-142 2 -178 0 -183 -11z"/>
<path d="M2947 3924 c-4 -4 -7 -45 -7 -91 l0 -83 185 0 186 0 -3 88 -3 87
-176 3 c-96 1 -178 -1 -182 -4z"/>
<path d="M2944 3555 c-3 -11 -4 -52 -2 -90 l3 -70 180 0 180 0 0 88 0 88 -178
2 c-171 2 -178 1 -183 -18z"/>
<path d="M2944 3207 c-3 -8 -4 -49 -2 -93 l3 -79 180 0 180 0 0 90 0 90 -178
3 c-142 2 -178 0 -183 -11z"/>
<path d="M2947 2854 c-8 -8 -10 -146 -2 -166 4 -10 43 -13 183 -11 l177 2 0
88 0 88 -176 3 c-96 1 -178 -1 -182 -4z"/>
<path d="M2942 2413 l3 -88 180 0 180 0 3 88 3 87 -186 0 -186 0 3 -87z"/>
</g>
</svg>
