<?xml version="1.0" standalone="no"?>
<!DOCTYPE svg PUBLIC "-//W3C//DTD SVG 20010904//EN"
 "http://www.w3.org/TR/2001/REC-SVG-20010904/DTD/svg10.dtd">
<svg version="1.0" xmlns="http://www.w3.org/2000/svg"
 width="512.000000pt" height="512.000000pt" viewBox="0 0 512.000000 512.000000"
 preserveAspectRatio="xMidYMid meet">
<metadata>
Created by potrace 1.14, written by Peter Selinger 2001-2017
</metadata>
<g transform="translate(0.000000,512.000000) scale(0.100000,-0.100000)"
fill="#000000" stroke="none">
<path d="M2419 5104 c-24 -8 -48 -19 -54 -27 -5 -7 -25 -19 -44 -27 -32 -13
-127 -99 -177 -161 -11 -14 -31 -51 -44 -82 -13 -31 -28 -57 -33 -57 -4 0 -8
-10 -7 -22 1 -13 2 -27 1 -33 -1 -5 -1 -615 -1 -1354 0 -986 -3 -1352 -11
-1376 -8 -21 -31 -43 -71 -70 -33 -21 -62 -44 -65 -52 -3 -7 -8 -11 -12 -9
-12 8 -170 -167 -197 -219 -7 -15 -28 -44 -45 -66 -17 -21 -28 -39 -25 -39 3
0 -3 -15 -13 -32 -23 -42 -69 -181 -77 -233 -3 -22 -9 -60 -14 -85 -11 -57 -5
-240 10 -305 36 -165 100 -304 195 -430 82 -107 234 -238 340 -292 176 -90
230 -112 296 -117 14 -2 30 -5 35 -8 16 -9 338 -3 354 7 8 5 24 8 35 7 27 -3
90 23 212 87 155 82 290 194 386 320 68 90 154 267 173 356 2 11 6 31 9 45 23
105 26 289 5 395 -20 108 -96 310 -122 326 -5 3 -8 8 -7 10 2 2 -16 33 -40 68
-55 81 -214 241 -239 241 -5 0 -17 8 -28 18 -10 9 -31 23 -46 31 -17 8 -24 19
-21 28 3 8 1 18 -5 22 -6 4 -12 72 -14 181 l-3 176 145 -1 c209 -2 220 6 220
155 0 83 -2 93 -25 115 -24 25 -26 25 -210 25 l-186 0 -24 -26 c-23 -25 -25
-35 -25 -120 0 -51 4 -96 10 -99 26 -16 4 -25 -61 -25 -65 0 -73 -2 -100 -29
l-29 -29 0 -347 c0 -396 -9 -358 100 -428 80 -51 170 -142 170 -172 0 -8 4
-15 8 -15 9 0 42 -70 42 -88 0 -7 4 -20 10 -30 46 -84 30 -311 -31 -418 -10
-19 -19 -41 -19 -50 0 -19 -111 -131 -171 -171 -25 -18 -59 -35 -75 -39 -16
-3 -38 -12 -49 -19 -23 -14 -85 -26 -134 -26 -19 0 -43 -5 -53 -10 -13 -7 -23
-7 -32 0 -7 6 -34 10 -60 9 -29 -2 -50 2 -55 10 -4 7 -26 14 -49 16 -23 3 -47
8 -54 13 -7 4 -18 8 -25 9 -6 1 -27 14 -46 28 -19 14 -37 26 -40 26 -7 0 -66
62 -100 105 -115 147 -148 367 -79 545 3 8 6 17 7 20 33 97 118 197 233 274
38 25 73 53 76 62 3 8 6 663 6 1455 0 1301 2 1444 16 1472 20 40 64 87 80 87
7 0 14 5 16 12 6 17 145 18 188 1 19 -8 46 -24 59 -36 30 -28 60 -93 61 -130
0 -16 10 -38 25 -52 21 -22 33 -25 100 -25 68 0 91 -9 65 -25 -6 -3 -10 -48
-10 -99 0 -85 2 -95 25 -120 l24 -26 184 0 c182 0 184 0 211 25 25 23 26 29
26 119 0 86 -2 97 -24 120 -23 26 -24 26 -186 26 -147 0 -162 2 -156 17 4 9 7
73 8 142 1 123 -14 210 -45 249 -5 6 -7 12 -3 12 3 0 -8 22 -25 50 -32 53
-129 147 -176 170 -15 8 -41 24 -58 36 -16 12 -41 25 -55 29 -42 14 -234 12
-281 -1z"/>
<path d="M2495 4564 c-16 -8 -42 -35 -57 -60 l-28 -45 0 -1468 0 -1468 -52
-24 c-29 -13 -56 -28 -59 -32 -3 -5 -8 -7 -10 -6 -12 9 -154 -132 -176 -175
-9 -17 -19 -33 -23 -36 -4 -3 -14 -34 -22 -68 -20 -79 -19 -246 2 -282 14 -25
16 -30 18 -61 4 -38 168 -204 241 -243 152 -82 364 -73 486 19 25 19 45 32 45
29 0 -12 98 91 139 146 23 30 40 62 38 70 -2 9 2 22 10 29 8 7 12 22 10 32 -3
11 -1 19 4 19 11 0 9 174 -3 230 -11 47 -59 143 -87 172 -9 10 -25 29 -36 43
-11 13 -25 25 -30 25 -6 0 -21 10 -35 23 -14 12 -50 35 -80 51 -30 16 -61 33
-67 39 -10 7 -13 314 -13 1474 0 1616 5 1490 -65 1552 -41 36 -98 42 -150 15z"/>
<path d="M2978 4017 c-26 -27 -28 -35 -28 -119 0 -74 4 -95 20 -118 l20 -28
188 -2 c187 -1 188 -1 215 24 26 24 27 30 27 121 0 90 -1 97 -27 123 l-28 28
-180 0 -180 0 -27 -29z"/>
<path d="M2975 3664 c-23 -25 -25 -35 -25 -119 0 -84 2 -94 25 -119 l24 -26
184 0 c182 0 184 0 211 25 25 23 26 29 26 119 0 85 -2 98 -23 120 -23 24 -24
24 -210 26 l-187 1 -25 -27z"/>
<path d="M2971 3301 c-18 -24 -21 -44 -21 -119 0 -81 2 -92 25 -116 l24 -26
184 0 c182 0 184 0 211 25 25 23 26 29 26 119 0 86 -2 97 -24 120 l-23 26
-191 0 -191 0 -20 -29z"/>
<path d="M2976 2946 c-24 -22 -26 -29 -26 -118 0 -87 2 -97 25 -122 l24 -26
184 0 c182 0 184 0 211 25 26 24 27 28 25 125 -1 98 -2 101 -29 120 -26 18
-45 20 -209 20 -175 0 -181 -1 -205 -24z"/>
</g>
</svg>
