<?xml version="1.0" standalone="no"?>
<!DOCTYPE svg PUBLIC "-//W3C//DTD SVG 20010904//EN"
 "http://www.w3.org/TR/2001/REC-SVG-20010904/DTD/svg10.dtd">
<svg version="1.0" xmlns="http://www.w3.org/2000/svg"
 width="500.000000pt" height="500.000000pt" viewBox="0 0 500.000000 500.000000"
 preserveAspectRatio="xMidYMid meet">
<metadata>
Created by potrace 1.14, written by Peter Selinger 2001-2017
</metadata>
<g transform="translate(0.000000,500.000000) scale(0.100000,-0.100000)"
fill="#000000" stroke="none">
<path d="M2411 4989 c-68 -13 -161 -62 -212 -110 -58 -55 -92 -108 -120 -184
l-22 -60 -2 -1377 c-1 -1345 -2 -1378 -21 -1399 -10 -12 -46 -40 -79 -62 -69
-47 -105 -77 -154 -131 -20 -21 -45 -48 -56 -60 -32 -32 -90 -124 -125 -195
-59 -119 -98 -268 -96 -372 1 -32 -2 -59 -6 -59 -4 0 -5 -6 -3 -12 2 -7 6 -40
9 -73 30 -383 313 -729 694 -849 108 -34 163 -41 302 -40 203 1 387 62 555
182 48 34 159 140 200 192 119 149 206 393 208 585 0 28 -11 155 -17 185 -47
258 -192 485 -406 636 -120 83 -112 66 -113 269 0 170 -1 175 -21 176 -72 3
-148 1 -153 -5 -4 -3 -7 -156 -7 -339 -1 -322 2 -357 29 -357 17 0 106 -70
161 -126 156 -160 209 -414 131 -630 -58 -160 -180 -292 -333 -360 -297 -132
-637 -19 -801 267 -61 107 -91 282 -70 404 15 86 66 206 114 267 42 54 136
138 183 164 27 15 50 34 51 43 0 9 2 657 3 1441 1 784 6 1438 11 1454 10 36
46 90 82 123 32 31 111 66 134 60 9 -3 22 -1 29 3 20 12 116 -15 158 -44 33
-22 84 -79 88 -96 0 -3 6 -18 13 -35 7 -16 13 -42 14 -57 1 -17 8 -29 17 -29
42 -4 147 -5 157 -1 19 6 10 243 -12 307 -48 141 -147 241 -289 291 -50 18
-166 24 -225 13z"/>
<path d="M2463 4454 c-59 -25 -55 68 -55 -1520 1 -1067 -2 -1469 -10 -1486 -7
-15 -39 -37 -82 -58 -135 -66 -231 -191 -258 -339 -23 -123 24 -276 114 -372
37 -39 122 -105 138 -107 3 0 12 -3 20 -6 75 -24 104 -29 165 -29 39 0 81 3
95 6 249 54 407 306 344 548 -30 119 -126 239 -231 289 -26 13 -51 23 -54 22
-4 0 -17 10 -30 24 l-24 26 -1 1473 -1 1473 -21 30 c-25 34 -67 45 -109 26z"/>
<path d="M2949 4275 c-1 -14 -1 -137 0 -155 1 -13 25 -15 158 -13 87 0 167 2
179 2 19 1 20 7 18 84 -1 45 -3 85 -3 88 -2 11 -351 5 -352 -6z"/>
<path d="M2949 3912 c-1 -17 -1 -141 0 -154 1 -5 79 -8 175 -8 130 0 175 3
178 13 2 6 4 46 3 87 l-1 75 -177 2 c-160 1 -177 0 -178 -15z"/>
<path d="M2951 3558 c-5 -14 -6 -78 -2 -149 1 -14 22 -16 178 -15 l176 1 1 88
2 87 -76 1 c-41 0 -119 1 -174 2 -84 2 -99 0 -105 -15z"/>
<path d="M2953 3206 c-7 -11 -10 -166 -3 -167 24 -5 325 -3 339 2 15 6 17 19
16 90 l-2 83 -172 0 c-95 1 -175 -3 -178 -8z"/>
<path d="M2949 2836 c-4 -90 -3 -139 2 -148 4 -7 71 -11 180 -11 l172 -1 2 82
c0 46 -2 86 -5 91 -3 4 -83 8 -177 8 -168 -1 -173 -1 -174 -21z"/>
<path d="M2947 2423 c0 -43 2 -83 2 -89 1 -8 56 -11 176 -12 156 0 175 2 176
17 1 9 2 49 3 88 l1 73 -180 0 -180 0 2 -77z"/>
</g>
</svg>
